<?xml version="1.0" encoding="UTF-8"?>
<svg id="Layer_2" data-name="Layer 2" xmlns="http://www.w3.org/2000/svg" viewBox="0 0 876.34 216.59">
  <defs>
    <style>
      .cls-1 {
        fill: #231f20;
        stroke-width: 0px;
      }
    </style>
  </defs>
  <g id="Layer_1-2" data-name="Layer 1">
    <g>
      <g>
        <path class="cls-1" d="M11.94,88.53c8.91,7.57,19.52,11.41,31.82,11.52,14.55-.21,21.93-5.58,22.13-16.11.11-8.62-4.76-13.81-14.59-15.55-4.51-.63-9.45-1.35-14.82-2.14-9.63-1.64-16.95-5.31-21.97-11.03-5.17-5.87-7.76-13.01-7.76-21.42,0-10.1,3.25-18.25,9.74-24.44C22.78,3.23,31.7.11,43.26,0c13.91.32,26.01,4.3,36.29,11.94l-9.45,14.39c-8.4-5.72-17.65-8.68-27.74-8.9-5.22,0-9.58,1.35-13.06,4.05-3.64,2.8-5.51,6.98-5.61,12.54,0,3.33,1.25,6.35,3.76,9.04,2.51,2.75,6.53,4.65,12.06,5.71,3.07.53,7.27,1.14,12.6,1.82,10.5,1.48,18.25,5.37,23.27,11.66,4.97,6.19,7.45,13.38,7.45,21.58-.56,22.11-13.66,33.33-39.28,33.64-16.57,0-30.82-5.26-42.74-15.78l11.12-13.18Z"/>
        <path class="cls-1" d="M93.63.95h17.89l17.58,82.17h.31L151.14.95h12.29l21.65,82.17h.31L203.04.95h17.89l-27.95,115.58h-14.2l-21.34-83.36h-.31l-21.42,83.36h-14.13L93.63.95Z"/>
        <path class="cls-1" d="M238.79.95h16.95v115.58h-16.95V.95Z"/>
        <path class="cls-1" d="M280.64.95h15.98l50.7,82.17h.31V.95h16.95v115.58h-16.06l-50.62-82.17h-.31v82.17h-16.95V.95Z"/>
        <path class="cls-1" d="M391.71.95h43.39c11.01.11,19.28,2.96,24.8,8.56,5.58,5.66,8.37,13.13,8.37,22.44.11,4.76-1,9.3-3.3,13.64-1.18,2.06-2.87,4.02-5.07,5.87-2.2,1.96-4.91,3.73-8.14,5.31v.32c6.11,1.64,10.73,4.94,13.86,9.91,2.93,5.13,4.39,10.7,4.39,16.73-.1,9.99-3.12,17.89-9.07,23.7-5.89,6.08-13.24,9.12-22.06,9.12h-47.18V.95ZM408.66,16.48v33.23h24.51c6.2,0,10.76-1.67,13.68-5.02,2.97-3.08,4.46-6.96,4.46-11.63s-1.49-8.63-4.46-11.87c-2.92-3.03-7.48-4.6-13.68-4.7h-24.51ZM408.66,65.24v34.82h26.17c6.31-.11,10.93-1.88,13.85-5.33,2.92-3.39,4.39-7.42,4.39-12.08s-1.46-8.85-4.39-12.24c-2.92-3.34-7.54-5.06-13.85-5.17h-26.17Z"/>
        <path class="cls-1" d="M488.66.95h16.95v74.58c.1,7.88,2.31,13.89,6.61,18.01,4.2,4.34,9.61,6.51,16.23,6.51s12.07-2.17,16.38-6.51c4.2-4.12,6.36-10.13,6.46-18.01V.95h16.95v76.42c-.21,12.16-4.02,21.8-11.45,28.94-7.48,7.35-16.92,11.07-28.34,11.18-11.22-.11-20.59-3.83-28.11-11.17-7.68-7.13-11.57-16.76-11.68-28.9V.95Z"/>
        <path class="cls-1" d="M592.99.95h43.74c9.33,0,16.94,2.54,22.83,7.61,7.09,5.76,10.79,13.98,11.1,24.65-.21,15.7-7.41,26.37-21.62,32.03l25.91,51.29h-20.14l-23.17-49.4h-21.71v49.4h-16.95V.95ZM609.94,51.62h25.71c6.36-.1,11.14-2.01,14.32-5.72,3.13-3.44,4.7-7.68,4.7-12.72-.1-6.04-1.98-10.41-5.62-13.12-2.87-2.38-7.03-3.58-12.47-3.58h-26.64v35.13Z"/>
        <path class="cls-1" d="M692,.95h15.98l50.7,82.17h.31V.95h16.95v115.58h-16.06l-50.62-82.17h-.31v82.17h-16.95V.95Z"/>
        <path class="cls-1" d="M803.07.95h71.52v16.48h-54.57v33.07h46.58v15.52h-46.58v34.02h54.57v16.48h-71.52V.95Z"/>
      </g>
      <g>
        <path class="cls-1" d="M246.98,201.06h-24.6l-4.98,14.98h-10.41l23.58-66.96h8.23l23.58,66.96h-10.36l-5.03-14.98ZM244.18,192.07l-9.39-29.29h-.18l-9.39,29.29h18.95Z"/>
        <path class="cls-1" d="M290.44,179.21h23.05v13.62c-.12,6.7-2.34,12.31-6.67,16.83-4.36,4.5-9.84,6.8-16.45,6.93-5.1-.12-9.35-1.41-12.76-3.86-3.47-2.36-5.99-5.08-7.56-8.18-.47-1.01-.9-1.97-1.29-2.89-.36-.95-.65-2.14-.89-3.58-.44-2.69-.67-7.87-.67-15.52s.22-12.98.67-15.61c.47-2.63,1.2-4.76,2.18-6.38,1.57-3.09,4.09-5.85,7.56-8.27,3.41-2.45,7.66-3.7,12.76-3.77,6.25.06,11.35,1.98,15.3,5.74,3.94,3.8,6.43,8.5,7.47,14.1h-10.42c-.8-2.71-2.26-5.02-4.36-6.92-2.2-1.81-4.87-2.75-8.01-2.82-2.31.06-4.3.54-5.97,1.43-1.69.92-3.06,2.07-4.1,3.45-1.28,1.44-2.12,3.3-2.54,5.57-.48,2.39-.71,6.89-.71,13.48s.24,11.06.71,13.39c.42,2.33,1.26,4.22,2.54,5.66,1.04,1.38,2.41,2.5,4.1,3.36,1.66,1.01,3.65,1.52,5.97,1.52,3.83,0,7-1.35,9.49-4.05,2.5-2.58,3.77-5.97,3.83-10.18v-3.5h-13.23v-9.54Z"/>
        <path class="cls-1" d="M326.77,149.08h41.43v9.55h-31.61v19.16h26.99v8.99h-26.99v19.71h31.61v9.55h-41.43v-66.96Z"/>
        <path class="cls-1" d="M379.08,149.08h22.69c8.78.06,15.37,3.83,19.76,11.3,1.57,2.51,2.56,5.14,2.98,7.9.33,2.76.49,7.52.49,14.28,0,7.2-.25,12.22-.76,15.06-.24,1.44-.59,2.73-1.07,3.86-.5,1.1-1.11,2.25-1.82,3.44-1.9,3.15-4.54,5.76-7.92,7.81-3.35,2.2-7.46,3.31-12.33,3.31h-22.02v-66.96ZM388.9,206.49h11.76c5.52,0,9.53-1.95,12.03-5.85,1.1-1.44,1.8-3.27,2.09-5.48.27-2.18.4-6.26.4-12.24s-.13-10-.4-12.52c-.36-2.52-1.2-4.56-2.54-6.12-2.73-3.9-6.59-5.78-11.58-5.66h-11.76v47.86Z"/>
        <path class="cls-1" d="M504.63,197.33c-1.42,6.21-4.14,10.97-8.14,14.31-4.12,3.3-9,4.95-14.64,4.95-5.1-.12-9.35-1.41-12.76-3.86-3.47-2.36-5.99-5.08-7.56-8.18-.48-1.01-.9-1.97-1.29-2.89-.36-.95-.65-2.14-.89-3.58-.44-2.69-.67-7.87-.67-15.52s.22-12.98.67-15.61c.47-2.63,1.2-4.76,2.18-6.38,1.57-3.09,4.09-5.85,7.56-8.27,3.41-2.45,7.67-3.7,12.77-3.77,6.26.06,11.36,1.97,15.3,5.73,3.94,3.79,6.43,8.48,7.47,14.08h-10.42c-.8-2.7-2.26-5-4.37-6.9-2.2-1.81-4.87-2.75-8.02-2.81-2.32.06-4.31.54-5.97,1.43-1.69.92-3.06,2.07-4.1,3.45-1.28,1.44-2.12,3.3-2.54,5.57-.48,2.39-.71,6.89-.71,13.48s.24,11.06.71,13.39c.42,2.33,1.26,4.22,2.54,5.66,1.04,1.38,2.41,2.5,4.1,3.36,1.66,1.01,3.65,1.52,5.97,1.52,5.53,0,9.66-3.05,12.39-9.16h10.41Z"/>
        <path class="cls-1" d="M546.43,201.06h-24.6l-4.98,14.98h-10.41l23.58-66.96h8.23l23.58,66.96h-10.37l-5.03-14.98ZM543.62,192.07l-9.39-29.29h-.18l-9.39,29.29h18.95Z"/>
        <path class="cls-1" d="M570.55,149.08h25.34c5.4,0,9.81,1.47,13.23,4.41,4.11,3.34,6.25,8.1,6.43,14.28-.12,9.09-4.29,15.28-12.52,18.55l15.01,29.71h-11.67l-13.42-28.62h-12.58v28.62h-9.82v-66.96ZM580.37,178.43h14.9c3.69-.06,6.45-1.17,8.3-3.32,1.81-2,2.72-4.45,2.72-7.37-.06-3.5-1.14-6.03-3.26-7.6-1.67-1.38-4.07-2.07-7.22-2.07h-15.43v20.35Z"/>
        <path class="cls-1" d="M627.92,149.08h41.43v9.55h-31.61v19.16h26.99v8.99h-26.99v19.71h31.61v9.55h-41.43v-66.96Z"/>
      </g>
      <rect class="cls-1" x="701.6" y="177.75" width="174.74" height="8.97" rx="4.48" ry="4.48"/>
      <rect class="cls-1" x="0" y="177.75" width="174.74" height="8.97" rx="4.48" ry="4.48"/>
    </g>
  </g>
</svg>